<?xml version="1.0" standalone="no"?>
<!DOCTYPE svg PUBLIC "-//W3C//DTD SVG 20010904//EN"
 "http://www.w3.org/TR/2001/REC-SVG-20010904/DTD/svg10.dtd">
<svg version="1.0" xmlns="http://www.w3.org/2000/svg"
 width="300.000000pt" height="300.000000pt" viewBox="0 0 300.000000 300.000000"
 preserveAspectRatio="xMidYMid meet">
<metadata>
Created by potrace 1.11, written by Peter Selinger 2001-2013
</metadata>
<g transform="translate(0.000000,300.000000) scale(0.100000,-0.100000)"
fill="#000000" stroke="none">
<path d="M1724 2953 c5 -10 -4 -12 -38 -9 -29 2 -43 -1 -40 -8 2 -6 -9 -20
-26 -31 -26 -18 -55 -55 -30 -40 6 3 10 2 10 -4 0 -5 10 -13 22 -17 19 -6 19
-7 4 -16 -9 -5 -13 -14 -9 -21 4 -8 1 -8 -9 1 -11 9 -18 9 -21 2 -3 -6 -4 -5
-2 2 1 7 7 12 13 11 6 -2 9 4 5 13 -4 12 -8 12 -13 4 -4 -7 -13 -10 -19 -6 -7
5 -9 1 -5 -8 12 -30 -6 -16 -20 17 -10 23 -15 27 -15 13 -1 -16 -4 -17 -13 -8
-16 16 -31 15 -22 0 4 -7 -3 -4 -15 6 -21 19 -21 19 -15 1 6 -14 4 -16 -7 -9
-8 4 -23 7 -34 6 -17 -2 -18 -1 -5 8 12 9 10 10 -9 5 -13 -4 -31 -8 -39 -9 -9
-2 -18 -9 -20 -17 -3 -11 -1 -11 7 1 8 11 11 12 11 2 0 -8 -9 -16 -20 -19 -19
-5 -25 -16 -21 -37 1 -5 -4 -4 -11 2 -12 9 -13 4 -11 -31 2 -23 4 -52 4 -64
-1 -13 3 -23 8 -23 6 0 12 -9 16 -19 4 -13 12 -18 22 -14 11 4 14 3 9 -5 -4
-7 -1 -15 8 -18 9 -3 13 -11 9 -18 -5 -7 -2 -7 8 1 12 10 15 8 16 -8 1 -11 -3
-17 -8 -13 -6 3 -5 -3 3 -15 7 -12 16 -21 21 -21 4 0 5 -4 2 -10 -3 -5 0 -7 8
-4 10 3 16 -3 19 -20 3 -14 1 -23 -4 -20 -10 6 -49 -29 -48 -43 1 -13 -52 -14
-68 -1 -9 7 -13 8 -9 2 4 -7 -7 -11 -33 -10 -29 1 -39 5 -37 16 1 8 -4 15 -10
16 -7 1 -18 2 -24 3 -5 0 -8 5 -5 10 7 11 -13 9 -33 -3 -11 -7 -12 -6 -6 5 8
12 6 12 -8 0 -13 -10 -17 -10 -17 -1 0 9 -4 9 -17 -1 -11 -10 -14 -10 -9 -1 4
6 3 12 -3 12 -5 0 -12 -6 -14 -12 -4 -10 -6 -10 -6 0 -1 9 -6 10 -20 2 -13 -7
-22 -7 -26 0 -9 15 -27 12 -19 -2 5 -10 4 -10 -6 -1 -14 13 -43 6 -34 -8 3 -5
0 -9 -6 -9 -6 0 -9 -4 -6 -9 3 -4 -4 -17 -17 -27 -12 -10 -16 -12 -9 -4 6 8
12 19 12 24 0 6 -8 -1 -17 -14 -10 -14 -17 -28 -15 -32 1 -5 -4 -8 -11 -8 -8
0 -19 -12 -25 -26 -9 -19 -9 -24 -1 -18 8 5 9 3 3 -7 -5 -8 -7 -22 -5 -33 1
-11 -2 -16 -8 -12 -7 4 -8 1 -5 -8 3 -9 10 -16 16 -16 5 0 6 -5 3 -10 -4 -6
-10 -8 -15 -5 -4 3 -13 -1 -19 -8 -8 -10 -7 -14 4 -14 8 0 11 5 8 11 -4 6 1 5
10 -3 18 -14 22 -22 10 -19 -14 4 -53 -23 -53 -36 0 -8 -7 -19 -15 -26 -12
-10 -18 -10 -32 1 -16 12 -17 12 -6 -2 10 -12 10 -18 0 -29 -9 -10 -9 -11 1
-6 6 4 12 2 12 -3 0 -11 -15 -15 -34 -12 -5 1 -5 -4 1 -11 6 -7 11 -17 11 -21
0 -5 3 -11 6 -14 3 -3 3 5 1 17 -2 12 -1 19 3 16 4 -4 7 -25 8 -47 0 -35 -2
-38 -19 -33 -17 5 -18 4 -6 -9 8 -8 17 -13 20 -11 3 2 6 -3 6 -11 0 -8 -5 -11
-11 -8 -6 3 -1 -5 11 -18 18 -20 20 -28 10 -39 -7 -8 -8 -10 -1 -7 15 9 25
-17 13 -32 -6 -8 -5 -8 3 -1 17 14 28 12 28 -4 0 -17 30 -16 49 2 16 16 40 -1
37 -25 -3 -19 -37 -27 -48 -10 -4 6 -5 -4 -4 -23 2 -27 7 -34 20 -32 11 2 15
-1 11 -7 -3 -6 -2 -11 2 -11 5 0 9 -9 10 -20 1 -11 -2 -18 -7 -15 -6 3 -7 -1
-4 -9 3 -9 9 -14 13 -11 9 5 7 -67 -1 -81 -4 -5 3 -21 14 -34 11 -14 17 -18
13 -10 -4 10 -2 9 8 -2 8 -10 18 -14 23 -10 4 4 2 -1 -5 -10 -12 -15 -11 -18
3 -18 9 0 16 -5 16 -11 0 -5 4 -7 10 -4 6 4 7 -1 3 -11 -5 -13 -3 -15 8 -9 12
7 12 6 1 -7 -10 -13 -10 -18 -1 -24 8 -5 9 -3 4 6 -6 9 -4 11 4 5 9 -5 7 -12
-8 -26 -24 -23 -29 -38 -6 -19 9 7 18 10 22 6 3 -3 1 -6 -6 -6 -7 0 -9 -4 -6
-10 3 -5 -1 -10 -10 -10 -9 0 -13 -4 -10 -10 3 -6 -1 -7 -10 -3 -9 3 -13 9 -8
12 4 3 9 14 10 25 1 13 -2 15 -10 7 -16 -16 -31 -13 -18 3 16 19 -10 16 -34
-4 -9 -7 -15 -9 -14 -4 3 19 -1 37 -8 30 -5 -4 -9 -12 -9 -17 -3 -22 -5 -23
-15 -9 -9 12 -10 11 -6 -6 3 -13 -3 -25 -15 -33 -12 -7 -17 -8 -13 -2 3 6 1
11 -5 11 -6 0 -8 5 -5 10 3 6 1 10 -5 10 -6 0 -9 4 -6 9 3 5 -1 11 -9 14 -8 4
-12 1 -9 -6 3 -8 -4 -13 -16 -13 -11 0 -20 7 -21 16 0 8 -4 5 -10 -9 -6 -16
-14 -21 -25 -17 -14 5 -15 4 -5 -8 8 -10 9 -16 1 -21 -5 -3 -10 -1 -10 6 0 7
-8 9 -21 6 -16 -4 -18 -3 -9 8 8 9 6 15 -7 20 -10 5 -22 7 -26 6 -5 -1 -5 4
-2 10 5 8 10 8 18 0 6 -6 18 -11 26 -11 9 1 -2 9 -24 20 -23 11 -32 19 -22 20
10 0 15 5 12 10 -4 6 -11 7 -17 4 -7 -5 -8 -2 -4 5 5 7 14 10 22 7 8 -3 11 0
7 9 -3 8 -9 13 -13 10 -5 -3 -12 0 -16 6 -4 8 -3 9 4 5 7 -4 13 -2 13 3 3 21
4 26 14 41 8 13 7 13 -8 1 -9 -7 -14 -18 -10 -24 3 -6 1 -7 -5 -3 -6 4 -8 14
-5 22 4 10 1 15 -8 14 -30 -5 -34 2 -34 55 1 30 -3 55 -7 55 -4 0 -7 3 -7 8 3
18 -3 46 -8 35 -2 -7 -9 -13 -14 -13 -6 0 -7 4 -4 10 3 5 1 19 -6 31 -6 12 -7
19 -2 16 4 -3 14 2 22 10 12 13 11 14 -7 8 -18 -5 -21 -3 -16 12 6 16 5 15 -9
-2 -11 -14 -15 -15 -14 -5 2 8 6 20 9 26 4 6 1 11 -7 11 -8 0 -12 -4 -9 -9 3
-4 0 -8 -5 -8 -14 0 -14 17 0 26 8 4 7 9 -2 15 -11 7 -10 9 3 9 9 0 19 4 22 9
4 5 -2 7 -12 4 -10 -2 -26 5 -36 16 -11 12 -16 21 -11 21 4 0 1 8 -6 17 -8 9
-9 14 -4 11 6 -3 16 1 24 9 12 13 11 14 -9 8 -15 -5 -20 -4 -16 4 4 6 15 11
26 11 10 0 21 7 24 16 6 15 4 15 -10 3 -16 -13 -16 -12 -4 8 8 13 20 19 29 15
9 -3 5 5 -9 17 -14 12 -20 20 -14 17 7 -3 14 1 17 9 4 8 1 12 -6 9 -7 -2 -13
4 -14 16 -1 11 3 20 8 20 6 0 7 -4 4 -10 -4 -6 1 -7 11 -3 16 6 16 8 -4 16
-11 5 -23 16 -27 25 -5 12 -3 13 10 2 14 -12 15 -11 4 13 -7 15 -16 24 -20 21
-5 -3 -9 0 -9 7 0 6 -8 18 -17 26 -14 11 -15 14 -2 10 10 -3 15 2 15 19 0 13
-3 24 -8 24 -4 0 -4 7 -1 17 5 12 3 14 -7 8 -9 -6 -11 -4 -5 6 12 19 14 49 3
43 -5 -4 -7 -12 -4 -20 3 -8 1 -14 -4 -14 -6 0 -10 5 -10 11 0 5 -5 7 -10 4
-6 -3 -10 1 -10 9 0 9 -6 16 -12 16 -7 1 -3 6 9 13 21 12 22 13 4 24 -10 6
-17 21 -16 35 1 15 -7 29 -24 40 -14 10 -21 18 -16 18 6 0 16 -4 23 -10 8 -7
9 -7 3 1 -5 6 -8 17 -7 23 2 6 1 8 -1 4 -8 -14 -25 -8 -20 6 3 7 -1 23 -9 35
-8 12 -13 25 -10 30 4 5 -3 7 -14 4 -21 -6 -28 11 -8 23 7 5 8 3 3 -6 -5 -8
-4 -11 3 -6 6 4 8 14 5 23 -4 11 -3 14 5 9 7 -4 12 -2 12 3 0 6 -4 11 -10 11
-19 0 -25 2 -45 16 -22 16 -39 18 -31 5 7 -11 -20 -8 -31 3 -4 4 -8 15 -8 23
0 9 -6 18 -14 21 -9 3 -11 0 -6 -9 5 -8 -2 -5 -14 5 -19 18 -21 18 -15 2 5
-12 1 -19 -16 -23 -16 -4 -18 -8 -8 -14 10 -7 9 -9 -4 -9 -9 0 -20 -4 -23 -10
-10 -16 -15 -50 -7 -49 19 3 23 -3 11 -17 -10 -13 -10 -17 0 -24 11 -6 11 -9
0 -13 -11 -4 -12 -7 -1 -18 6 -7 12 -18 12 -23 0 -6 -5 -4 -10 4 -8 12 -10 11
-10 -7 0 -12 -3 -30 -7 -40 -6 -16 -5 -17 12 -3 17 13 18 13 10 0 -5 -8 -10
-21 -12 -29 -1 -8 -5 -26 -8 -40 -6 -25 -7 -25 -21 -7 -8 11 -14 15 -14 9 0
-19 25 -34 37 -22 7 7 10 3 8 -15 -2 -14 2 -26 8 -26 6 0 2 -7 -9 -16 -10 -8
-12 -12 -4 -8 8 4 22 13 31 21 15 12 16 11 11 -13 -3 -18 -1 -25 6 -20 6 3 14
2 17 -4 4 -6 1 -9 -6 -8 -6 2 -14 -3 -17 -11 -3 -10 0 -11 9 -5 12 7 12 5 0
-9 -7 -9 -16 -15 -20 -13 -4 3 -7 -4 -7 -15 0 -19 1 -19 13 -3 12 16 13 14 7
-14 -5 -23 -3 -32 6 -32 8 0 10 -3 7 -7 -4 -3 -15 0 -25 8 -10 8 -7 4 6 -8 13
-13 18 -23 13 -23 -6 0 -11 -5 -11 -11 0 -5 5 -7 12 -3 7 4 8 3 4 -5 -4 -6
-11 -9 -16 -6 -5 3 -12 0 -16 -6 -4 -8 -3 -9 4 -5 7 4 12 2 12 -4 0 -7 6 -10
13 -7 7 3 21 -1 32 -9 10 -8 13 -14 6 -14 -7 0 -9 -5 -6 -10 4 -6 11 -7 17 -4
7 5 8 2 4 -5 -5 -7 -15 -10 -25 -7 -14 6 -15 5 0 -6 9 -7 14 -19 11 -27 -3 -9
0 -11 8 -6 9 6 11 4 5 -6 -14 -22 -13 -49 2 -49 10 0 13 -7 9 -22 -3 -13 -3
-17 0 -10 9 19 24 14 18 -5 -5 -15 -4 -15 4 -3 7 9 7 19 2 25 -7 8 -5 12 5 12
8 0 15 -5 15 -10 0 -5 9 -7 21 -4 19 5 19 4 5 -17 -13 -20 -13 -25 0 -39 8 -9
11 -15 8 -12 -4 2 -15 0 -24 -5 -14 -7 -19 -5 -23 11 -3 12 -10 18 -15 15 -6
-3 -13 0 -15 6 -4 10 -6 9 -6 -1 -1 -11 -4 -11 -18 0 -16 13 -17 12 -5 -3 7
-9 22 -15 32 -13 13 2 20 -4 26 -23 4 -15 7 -30 6 -34 -1 -4 6 -4 15 -1 11 4
13 8 5 11 -20 6 -14 18 10 19 13 1 18 -1 13 -5 -11 -8 -15 -72 -5 -72 10 0 9
-33 -2 -47 -5 -7 -7 -22 -3 -34 6 -16 4 -20 -6 -14 -8 5 -6 -1 4 -13 19 -20
18 -21 -5 -15 l-23 5 24 -18 25 -18 -30 -13 -29 -12 28 -1 c15 0 27 -5 27 -11
0 -5 5 -7 10 -4 6 3 10 1 10 -5 0 -7 7 -10 14 -7 10 4 13 1 9 -8 -3 -8 -9 -12
-14 -9 -16 10 -9 -8 8 -21 13 -9 13 -14 3 -20 -9 -5 -11 -4 -6 3 4 7 2 12 -3
12 -6 0 -11 -7 -11 -15 0 -8 4 -15 9 -15 5 0 8 -8 7 -17 -2 -10 2 -21 8 -25 8
-5 7 -8 -2 -8 -7 0 -10 -5 -6 -12 4 -6 3 -9 -2 -5 -5 3 -15 -6 -21 -20 -12
-25 -12 -25 7 -8 11 10 20 14 20 8 0 -16 -36 -44 -45 -36 -4 5 -5 2 0 -5 5
-10 10 -11 18 -3 6 6 15 11 21 11 6 0 5 -5 -2 -12 -15 -15 -15 -28 -1 -28 5 0
8 4 5 9 -3 5 1 12 10 15 10 4 13 2 8 -6 -5 -7 -2 -9 9 -5 9 3 18 -1 21 -10 4
-9 -1 -17 -14 -20 -11 -3 -17 -10 -13 -16 3 -6 1 -7 -6 -3 -6 4 -9 11 -6 16 8
14 -28 6 -45 -10 -17 -15 -16 -35 0 -25 5 3 12 1 15 -5 4 -6 1 -9 -7 -8 -8 2
-12 -5 -11 -17 1 -19 1 -19 -11 -2 -8 10 -20 15 -30 11 -17 -7 -22 -24 -6 -24
5 0 7 -6 4 -13 -3 -8 2 -14 11 -14 8 0 15 4 15 9 0 5 5 6 10 3 9 -6 14 8 11
28 0 4 8 7 20 7 16 0 20 -6 19 -27 -1 -16 -2 -37 -1 -48 1 -17 3 -17 11 -5 6
10 10 11 10 3 0 -7 7 -13 16 -13 8 0 12 5 9 10 -6 9 8 14 28 11 5 -1 6 3 2 9
-3 6 -12 7 -18 4 -9 -5 -9 -4 0 6 9 10 14 10 26 -1 11 -12 11 -17 2 -26 -7 -7
-16 -9 -21 -5 -4 4 -4 1 0 -6 6 -9 11 -10 20 -3 9 8 13 7 13 -4 0 -8 -4 -12
-9 -9 -4 3 -8 -2 -8 -10 0 -9 5 -16 10 -16 12 0 9 -22 -5 -32 -6 -5 -5 -11 4
-17 9 -6 10 -11 2 -15 -15 -10 -2 -29 15 -22 8 3 14 -1 14 -9 0 -8 8 -15 18
-15 14 0 15 -2 2 -10 -13 -8 -12 -10 3 -10 9 0 17 -5 17 -11 0 -6 6 -9 14 -6
9 4 13 0 11 -11 -1 -9 3 -23 9 -31 8 -11 8 -13 -1 -7 -8 4 -13 2 -13 -8 0 -8
5 -18 10 -21 6 -4 8 -10 6 -14 -3 -4 1 -8 9 -8 8 0 12 4 9 8 -2 4 5 7 16 6 11
-1 20 -5 20 -10 0 -5 7 -4 15 3 13 10 15 9 15 -9 0 -11 -5 -21 -12 -21 -6 0
-8 -3 -5 -6 4 -4 14 -1 24 7 9 8 14 9 10 2 -4 -7 0 -16 10 -22 10 -6 14 -11 9
-11 -5 0 -5 -6 0 -13 5 -7 0 -4 -10 8 -16 16 -18 17 -13 3 4 -10 2 -18 -4 -18
-6 0 -7 -5 -3 -12 5 -8 2 -9 -9 -5 -20 7 -23 -8 -4 -17 6 -4 -4 -4 -23 -2 -19
3 -29 2 -23 0 10 -4 10 -11 2 -25 -7 -15 -6 -23 6 -35 8 -9 13 -19 10 -24 -3
-5 -1 -11 4 -14 5 -4 13 -1 17 5 4 8 3 9 -4 5 -8 -5 -10 -2 -6 9 4 9 9 13 12
11 8 -9 8 -60 -1 -78 -4 -10 -4 -18 2 -18 5 0 12 -7 15 -16 6 -14 4 -15 -9 -4
-13 11 -16 11 -13 -1 2 -8 9 -19 17 -25 11 -9 12 -12 1 -19 -9 -6 -11 -4 -5 5
6 9 4 11 -4 5 -9 -5 -10 -10 -2 -18 7 -7 7 -17 -1 -31 -6 -12 -7 -17 -2 -13 4
4 14 -3 22 -15 7 -13 11 -16 9 -8 -3 11 3 16 22 15 20 0 25 4 23 19 -3 15 1
18 17 13 12 -3 19 -2 17 1 -2 4 2 21 10 37 8 17 12 23 10 14 -2 -9 0 -22 5
-30 8 -12 10 -12 8 1 -3 29 1 40 16 40 8 0 15 5 15 11 0 5 -4 8 -9 5 -5 -3
-12 1 -15 10 -4 10 -2 13 7 8 8 -5 7 -2 -2 9 -12 15 -11 17 5 17 16 0 16 2 4
9 -8 6 -19 7 -25 3 -5 -3 -4 2 3 11 8 9 10 22 6 28 -4 7 -3 9 3 6 6 -4 14 0
17 9 3 9 13 14 21 11 9 -4 12 -1 9 7 -3 7 3 19 12 27 14 11 18 11 30 -5 15
-21 1 -61 -18 -50 -7 4 -8 3 -4 -4 4 -6 14 -8 22 -5 14 5 14 3 6 -14 -9 -15
-8 -20 3 -20 8 0 11 5 8 10 -3 6 -1 7 5 3 7 -4 12 -17 12 -29 0 -18 2 -19 10
-7 8 12 10 11 10 -6 0 -12 7 -25 16 -28 14 -5 15 -4 4 9 -7 8 -8 15 -2 15 5 0
13 -8 17 -17 8 -22 6 -29 -6 -25 -5 1 -9 -2 -9 -8 0 -5 8 -10 18 -10 13 0 14
-2 4 -9 -10 -6 -8 -10 9 -14 19 -5 20 -8 9 -22 -11 -13 -10 -15 6 -9 10 4 16
4 12 -1 -4 -4 -2 -15 5 -23 10 -13 9 -14 -10 -4 -26 14 -36 15 -29 3 6 -8 -53
-5 -62 4 -9 9 -42 -16 -36 -27 5 -7 -1 -9 -20 -4 -16 4 -26 2 -26 -4 0 -6 4
-9 8 -6 4 2 14 0 22 -6 12 -8 12 -9 -2 -4 -10 3 -18 0 -18 -6 0 -7 -7 -3 -16
8 -8 10 -12 13 -8 5 5 -10 3 -13 -9 -8 -12 4 -14 2 -10 -10 4 -10 2 -14 -4
-10 -6 4 -14 0 -17 -9 -3 -8 -2 -12 4 -9 6 3 10 -1 10 -9 0 -9 -5 -16 -11 -16
-6 0 -3 -7 5 -16 18 -17 21 -28 7 -19 -5 3 -12 1 -16 -5 -3 -5 -1 -10 4 -10 6
0 11 -5 11 -11 0 -6 -7 -9 -14 -6 -10 4 -13 1 -9 -8 3 -8 10 -12 17 -8 6 3 6
1 -1 -8 -18 -18 -16 -32 2 -25 8 3 15 1 15 -5 0 -5 10 -14 23 -19 13 -5 16 -9
7 -9 -9 -1 -22 5 -30 11 -8 7 -4 0 10 -17 14 -16 27 -32 29 -35 2 -3 1 3 -2
12 -4 12 -2 15 9 11 8 -3 13 -11 10 -19 -3 -8 2 -11 15 -9 17 4 19 2 8 -11 -6
-8 -9 -17 -5 -21 3 -3 6 -1 6 5 0 7 7 12 16 12 8 0 13 -4 10 -8 -2 -4 8 -8 24
-7 15 0 26 3 23 7 -6 10 1 10 31 -1 17 -7 26 -7 30 2 3 9 7 8 15 -3 8 -11 11
-12 11 -2 0 7 5 10 10 7 6 -3 10 -1 10 5 0 6 5 8 11 5 6 -4 9 0 7 10 -2 11 4
19 15 20 9 2 17 -1 17 -7 0 -5 7 -2 16 6 8 9 20 14 25 11 5 -4 14 6 21 20 11
24 13 25 19 8 6 -15 8 -14 9 7 1 23 2 23 10 5 6 -14 9 -15 10 -5 0 12 4 10 17
-5 15 -20 15 -20 10 2 -3 15 -1 20 9 16 8 -3 11 -10 8 -17 -3 -6 2 -2 10 8 9
11 16 15 16 9 0 -9 14 -10 55 -4 6 1 5 5 -2 9 -8 5 -4 14 13 31 21 20 23 21
19 5 -3 -11 1 -6 9 11 9 20 11 36 5 47 -5 9 -5 19 0 22 4 3 5 24 1 46 -4 22
-3 40 1 40 5 0 9 5 9 11 0 5 -4 8 -8 5 -5 -3 -7 8 -4 23 2 16 13 34 25 40 22
11 22 11 0 5 -14 -3 -23 -1 -23 6 0 6 5 8 10 5 6 -3 10 -1 10 6 0 9 3 9 14 -1
8 -6 12 -18 9 -27 -5 -12 2 -14 38 -12 30 2 43 -1 41 -9 -1 -7 2 -12 8 -12 5
0 10 7 10 15 0 8 5 15 11 15 5 0 8 -3 6 -8 -3 -4 2 -14 11 -22 14 -13 15 -12
9 2 -3 10 1 22 11 30 16 12 16 11 2 -6 -14 -18 -13 -18 7 -12 18 6 21 4 18
-14 -3 -17 -1 -19 15 -10 15 8 17 6 13 -13 -3 -14 -2 -18 4 -10 5 7 17 11 28
9 11 -2 23 2 27 8 4 6 15 3 29 -9 12 -11 19 -14 15 -7 -4 6 -2 12 3 12 6 0 11
-6 11 -12 0 -10 2 -10 9 0 4 8 12 14 16 14 4 0 12 -6 16 -14 7 -10 9 -8 9 6 0
19 0 19 22 0 12 -10 18 -13 14 -6 -5 8 0 12 13 12 12 0 22 -6 23 -12 0 -7 2
-17 2 -23 1 -5 5 -16 9 -22 5 -8 3 -13 -4 -13 -7 0 -10 -3 -7 -6 4 -3 15 -1
26 5 21 11 25 0 9 -26 -5 -7 -6 -17 -2 -22 3 -5 0 -13 -6 -17 -8 -4 -9 -3 -5
4 4 7 2 12 -5 12 -8 0 -7 5 2 17 13 15 12 15 -9 2 -12 -8 -18 -15 -12 -17 18
-6 11 -22 -10 -22 -13 0 -18 -5 -14 -15 8 -20 -6 -19 -20 1 -10 13 -12 13 -12
-5 0 -11 4 -18 7 -15 4 2 10 0 14 -6 4 -6 10 -8 13 -6 4 2 8 -9 9 -26 0 -20
-2 -26 -7 -17 -5 7 -6 17 -3 23 3 5 1 6 -6 2 -9 -6 -8 -14 4 -32 14 -22 14
-24 -2 -24 -17 -1 -17 -1 -1 -11 9 -5 15 -16 12 -24 -8 -19 22 -51 29 -32 4 7
6 6 6 -5 1 -11 7 -15 21 -11 11 3 17 10 13 16 -3 6 -1 7 5 3 6 -4 8 -14 5 -23
-5 -12 -3 -14 8 -8 12 7 12 6 1 -7 -9 -11 -10 -18 -2 -23 5 -3 13 1 16 9 3 9
10 13 15 10 5 -3 7 -10 4 -15 -3 -5 1 -6 9 -3 8 3 21 2 28 -2 19 -12 39 -14
32 -3 -3 5 -11 6 -17 2 -7 -4 -6 0 2 10 14 18 26 23 17 8 -3 -5 1 -11 9 -15 9
-3 12 -12 9 -23 -5 -14 -4 -15 4 -4 6 8 8 19 6 26 -3 6 2 12 10 12 9 0 12 -6
8 -16 -5 -14 -4 -14 11 -2 10 8 20 11 24 7 3 -3 1 -6 -6 -6 -9 0 -9 -4 1 -14
7 -8 15 -12 17 -10 2 2 12 -1 22 -7 15 -8 19 -6 19 6 0 15 1 15 16 0 12 -11
20 -13 29 -5 10 8 15 8 21 -1 5 -8 3 -9 -6 -4 -8 5 -11 4 -6 -3 4 -6 13 -9 21
-6 8 4 12 10 9 15 -3 5 2 6 10 3 9 -3 13 -11 9 -18 -4 -7 -1 -7 9 1 8 7 19 9
24 5 4 -4 2 2 -6 12 -14 18 -14 19 10 6 24 -13 24 -12 10 5 -14 17 -13 18 4
12 17 -7 17 -6 5 9 -13 16 -12 16 7 6 17 -9 20 -8 19 6 0 10 -4 22 -8 29 -11
18 3 42 21 35 14 -5 15 -4 2 10 -8 9 -19 14 -24 11 -4 -3 -1 6 8 19 9 14 13
28 9 33 -5 4 -2 5 5 1 7 -4 12 -2 12 6 0 10 3 9 11 -2 8 -12 10 -9 6 13 -2 15
-1 27 3 27 4 0 11 7 14 16 5 13 4 14 -7 6 -10 -9 -14 -8 -14 3 0 7 3 14 6 13
21 -2 31 4 25 14 -5 7 -3 8 6 3 7 -5 27 -9 43 -11 20 -1 25 1 16 7 -10 6 -10
9 -1 9 6 0 12 8 13 18 0 9 3 12 5 5 4 -9 11 -9 30 -1 24 11 33 28 14 28 -5 0
-10 -4 -10 -10 0 -5 -5 -10 -10 -10 -6 0 -5 8 2 20 7 11 19 18 27 15 9 -4 11
0 7 11 -5 14 -4 15 8 5 9 -7 17 -8 20 -2 3 5 0 12 -6 14 -8 4 -7 6 4 6 9 1 20
10 23 21 4 11 11 18 16 14 5 -3 9 -2 8 3 -4 21 3 31 21 36 22 6 27 36 8 56
-11 10 -9 11 7 5 17 -7 18 -6 7 8 -11 14 -10 18 9 28 12 7 19 8 16 3 -4 -5 -1
-10 6 -10 15 0 17 133 2 156 -6 11 -4 13 8 8 11 -4 14 -2 10 8 -3 8 -10 12
-17 8 -6 -3 -6 -1 2 8 14 16 16 33 2 24 -16 -10 -12 2 7 21 16 16 16 16 -5 10
-14 -5 -22 -3 -22 4 0 7 -7 9 -16 6 -13 -5 -14 -4 -6 7 7 8 8 18 4 22 -4 5 -2
5 4 2 6 -4 19 2 29 13 10 11 22 17 28 13 6 -3 7 -1 3 6 -4 6 -11 9 -15 7 -4
-3 -8 2 -8 10 0 8 6 13 13 10 8 -3 11 0 8 8 -3 8 -1 17 5 21 7 4 8 12 2 23 -5
9 -9 21 -9 25 0 5 -3 11 -6 14 -7 7 1 -33 8 -46 3 -5 -2 -15 -12 -22 -15 -12
-16 -12 -5 2 7 9 10 19 6 22 -3 4 -7 19 -9 34 -1 16 -2 32 -3 36 -1 5 -6 5
-13 1 -7 -4 -8 -3 -4 5 4 6 12 8 18 5 6 -4 8 -3 5 3 -4 6 -18 9 -33 7 -14 -1
-23 0 -20 3 3 4 0 13 -6 22 -8 10 -4 9 10 -3 12 -11 22 -14 22 -9 0 6 -7 14
-16 17 -8 3 -12 11 -8 17 5 8 1 8 -14 0 -18 -9 -22 -7 -33 18 -7 16 -16 28
-20 25 -4 -2 -21 -6 -38 -8 -27 -3 -29 -1 -20 16 5 10 15 15 21 12 7 -4 8 -3
4 4 -5 9 -13 9 -28 1 -15 -8 -19 -8 -14 0 4 6 3 11 -3 11 -5 0 -12 8 -14 17
-4 17 -5 17 -6 0 0 -10 -6 -15 -11 -12 -6 4 -7 12 -4 18 4 7 3 8 -2 4 -5 -5
-10 -13 -10 -18 -1 -5 -2 -12 -3 -15 0 -4 -7 -1 -15 5 -9 7 -13 23 -10 39 3
15 1 22 -4 15 -4 -7 -14 -11 -22 -9 -25 4 -78 35 -83 48 -4 10 -6 10 -6 1 -1
-7 -6 -13 -12 -13 -5 0 -7 5 -4 10 3 6 1 10 -5 10 -6 0 -8 6 -5 13 4 6 -2 2
-12 -11 -17 -21 -21 -22 -32 -8 -15 18 -36 22 -25 4 5 -7 3 -8 -5 -4 -7 5 -10
14 -7 22 3 8 0 13 -6 11 -6 -1 -11 8 -13 20 -1 12 1 22 4 21 20 -2 31 3 26 12
-3 6 1 7 10 3 12 -4 13 -8 5 -13 -8 -5 -7 -9 4 -13 9 -4 15 -3 15 1 -4 28 1
34 18 21 11 -9 14 -10 9 -2 -9 16 11 53 29 53 16 0 38 34 28 44 -3 3 -14 6
-23 6 -23 0 -45 26 -30 35 5 3 10 12 10 18 0 7 -4 6 -10 -3 -9 -13 -14 -8 -12
11 1 4 -8 5 -18 2 -23 -6 -26 6 -7 27 10 12 9 12 -4 2 -12 -9 -19 -9 -29 1
-10 9 -11 9 -6 0 4 -7 2 -13 -3 -13 -6 0 -11 5 -11 11 0 7 -9 5 -24 -4 -18
-12 -26 -13 -36 -4 -7 7 -10 7 -7 2 3 -6 2 -17 -3 -25 -11 -18 -83 -23 -74 -6
3 6 -2 2 -10 -8 -14 -17 -16 -18 -16 -3 0 9 -5 17 -11 17 -5 0 -7 -5 -3 -12 4
-6 3 -8 -4 -5 -11 8 -11 25 1 44 5 7 1 10 -11 6 -10 -2 -24 3 -31 11 -9 11
-10 16 -2 16 12 0 10 26 -4 52 -10 16 -13 18 -35 18 -5 0 -10 4 -10 10 0 5 8
7 18 4 9 -3 7 1 -6 8 -12 8 -19 17 -16 21 4 4 0 7 -10 7 -11 0 -15 -5 -10 -12
4 -8 3 -10 -2 -5 -9 8 -10 12 -13 38 0 6 -8 8 -17 5 -8 -3 -13 -2 -9 3 3 5 -1
12 -7 14 -10 4 -9 8 2 16 8 6 10 11 4 11 -5 0 -16 -6 -23 -12 -10 -11 -11 -10
-6 3 7 19 -20 46 -30 29 -5 -8 -11 -7 -23 2 -13 11 -14 11 -8 0 6 -10 3 -13
-10 -10 -12 2 -18 11 -16 23 2 16 1 17 -7 5 -5 -8 -8 -17 -5 -21 2 -4 -5 -9
-16 -12 -17 -4 -18 -2 -9 15 7 12 7 18 1 14 -5 -3 -12 0 -15 8 -4 10 0 12 15
8 14 -3 19 -1 14 6 -5 8 -1 10 10 5 12 -4 15 -3 10 5 -4 7 -1 12 8 12 15 0 21
12 17 34 -1 5 6 3 15 -5 16 -13 17 -12 7 4 -12 23 -5 67 11 67 6 0 4 4 -4 9
-8 6 -19 7 -25 4 -5 -4 -2 3 8 14 9 11 14 23 10 27 -4 4 0 4 8 1 11 -4 18 1
22 15 4 14 10 20 19 15 7 -3 4 1 -6 9 -11 9 -15 16 -8 16 6 0 9 7 5 17 -5 12
-3 14 8 8 12 -7 12 -6 1 7 -11 13 -11 21 -2 39 7 12 8 19 2 15 -6 -3 -12 -3
-15 1 -2 5 -2 1 0 -7 2 -11 0 -11 -10 2 -8 10 -18 14 -23 10 -4 -4 -2 2 6 12
13 18 13 19 -1 14 -9 -4 -20 2 -28 13 -6 11 -16 17 -22 13 -7 -4 -6 3 1 17 7
13 9 21 5 17 -4 -4 -17 -1 -28 7 -16 11 -24 12 -35 2 -12 -9 -16 -9 -20 1 -2
7 -9 18 -15 25 -15 15 -18 47 -5 47 5 0 6 5 2 12 -5 7 -2 9 8 5 9 -3 20 -1 26
5 6 6 12 6 16 -1 10 -16 26 -13 26 5 0 8 4 13 8 10 5 -3 9 1 9 9 0 8 -4 12 -9
9 -4 -3 -8 0 -8 6 0 6 -3 9 -7 7 -5 -3 -17 5 -28 16 -11 11 -15 17 -9 14 7 -4
14 0 18 8 3 9 -1 15 -10 15 -12 0 -10 5 7 19 16 13 28 16 36 10 13 -12 13 8
-1 30 -6 10 -5 12 3 7 6 -4 14 0 17 9 6 14 8 14 21 -2 14 -17 14 -17 9 0 -4
11 -2 16 5 12 5 -4 18 -1 27 7 15 11 16 11 6 -2 -5 -8 -10 -19 -10 -25 1 -13
36 -62 36 -51 0 5 -7 18 -17 28 -9 10 -11 18 -6 18 6 0 14 -7 17 -16 3 -8 11
-12 17 -8 8 4 9 3 5 -4 -4 -6 2 -17 14 -24 11 -7 20 -17 20 -22 0 -5 -9 -1
-20 9 -25 22 -26 15 -2 -11 21 -25 37 -24 55 0 11 15 16 16 22 6 6 -9 4 -11
-5 -5 -9 5 -11 4 -6 -4 10 -15 29 -3 22 14 -2 7 2 16 10 19 8 3 14 11 14 18 0
9 -3 8 -10 -2 -7 -11 -9 -3 -6 25 2 22 -2 46 -8 54 -8 11 -8 13 1 8 6 -4 15
-2 19 4 4 7 3 9 -4 5 -6 -3 -14 -2 -17 4 -5 8 -11 8 -20 0 -11 -9 -12 -6 -8
12 4 19 3 20 -7 8 -10 -12 -11 -11 -7 8 3 13 3 21 0 18 -9 -9 -44 14 -38 25 4
5 3 8 -2 7 -4 -2 -8 2 -8 7 0 6 4 9 8 7 5 -1 6 2 2 8 -5 8 -11 8 -19 1 -7 -6
-16 -8 -19 -4 -4 3 -7 0 -7 -8 0 -11 -2 -11 -10 1 -6 9 -10 11 -10 3 0 -25
-28 -1 -32 27 -3 23 -2 27 8 19 8 -7 14 -6 19 2 6 8 10 7 16 -2 6 -10 9 -10 9
-2 0 6 9 10 19 8 21 -4 37 21 18 29 -8 3 -8 5 2 5 11 1 11 4 0 18 -12 14 -12
16 1 9 8 -4 4 2 -9 13 -12 12 -27 19 -31 16 -5 -3 -7 6 -6 19 2 18 -1 23 -12
18 -9 -3 -13 -1 -9 5 7 11 -28 11 -39 0 -11 -11 -26 -8 -19 3 3 6 -1 10 -9 10
-9 0 -15 3 -15 8 3 18 -2 32 -12 32 -5 0 -7 -6 -3 -12 4 -7 -3 -4 -16 7 -13
11 -20 14 -16 8z m-74 -47 c0 -2 -7 -7 -16 -10 -8 -3 -12 -2 -9 4 6 10 25 14
25 6z m48 -611 c-3 -3 -9 2 -12 12 -6 14 -5 15 5 6 7 -7 10 -15 7 -18z m-1204
-23 c3 -5 -1 -9 -9 -9 -8 0 -12 4 -9 9 3 4 7 8 9 8 2 0 6 -4 9 -8z m1371 -442
c3 -5 1 -10 -4 -10 -6 0 -11 5 -11 10 0 6 2 10 4 10 3 0 8 -4 11 -10z m152
-175 c0 -8 -4 -12 -9 -9 -5 3 -6 10 -3 15 9 13 12 11 12 -6z m-934 -71 c-1 -5
4 -16 10 -24 9 -12 9 -13 -3 -2 -19 17 -33 15 -26 -4 3 -8 2 -12 -4 -9 -6 3
-10 17 -10 30 0 16 5 22 18 21 9 -2 16 -7 15 -12z m-43 -24 c0 -5 -5 -10 -11
-10 -5 0 -7 5 -4 10 3 6 8 10 11 10 2 0 4 -4 4 -10z m1374 -279 c4 -5 -3 -7
-14 -4 -23 6 -26 13 -6 13 8 0 17 -4 20 -9z m-1570 -234 c3 3 6 -1 6 -10 0 -9
6 -17 13 -18 6 0 2 -4 -10 -9 -13 -5 -23 -14 -23 -20 0 -6 -4 -8 -10 -5 -5 3
-10 0 -10 -7 0 -8 -5 -19 -11 -25 -13 -13 -42 -6 -33 8 3 5 0 9 -7 9 -8 0 -8
4 2 16 10 13 10 17 -2 25 -10 6 -11 9 -1 9 7 0 11 4 8 9 -9 14 20 21 34 8 10
-9 12 -8 7 6 -5 14 -3 16 12 8 10 -6 21 -7 25 -4z m1520 -240 c3 4 6 0 6 -8 0
-11 2 -11 10 1 8 13 10 12 10 -2 0 -10 6 -18 13 -18 9 0 8 -3 -2 -9 -7 -5 -11
-14 -7 -20 4 -7 1 -9 -8 -5 -10 4 -14 0 -11 -13 1 -10 8 -17 15 -15 6 1 9 -2
5 -8 -3 -6 -11 -8 -16 -5 -5 4 -9 1 -9 -4 0 -6 4 -11 8 -11 11 0 9 -37 -3 -47
-4 -5 -5 -2 0 6 5 9 4 12 -3 7 -17 -10 -15 -26 4 -26 8 0 12 -5 9 -10 -4 -6
-11 -7 -17 -4 -6 4 -6 -2 1 -15 10 -17 9 -20 -4 -15 -8 4 -15 10 -15 16 0 5
-5 6 -12 2 -7 -5 -8 -3 -3 7 5 7 10 22 10 32 2 18 0 17 -14 -2 -13 -17 -19
-19 -29 -9 -9 9 -12 9 -12 0 0 -7 -5 -12 -11 -12 -6 0 -8 7 -5 16 5 13 4 14
-7 6 -13 -11 -15 -3 -18 71 0 11 -5 15 -12 10 -9 -5 -8 -2 0 9 7 8 10 18 6 21
-3 4 4 7 16 7 14 0 20 4 15 12 -5 8 -2 9 10 5 14 -5 15 -3 6 13 -9 16 -8 18 5
14 8 -4 15 -1 15 5 0 7 8 8 24 1 13 -5 27 -6 30 -3z m-1309 -288 c-4 -5 -2 -9
4 -9 5 0 11 6 14 13 3 6 5 2 4 -9 -1 -14 -7 -21 -17 -19 -8 2 -18 4 -22 4 -5
1 -5 15 1 39 1 2 6 0 11 -3 6 -4 8 -11 5 -16z m869 -74 c-4 -8 -10 -12 -15 -9
-11 6 -2 24 11 24 5 0 7 -7 4 -15z"/>
<path d="M275 2689 c-4 -6 -5 -12 -2 -15 2 -3 7 2 10 11 7 17 1 20 -8 4z"/>
<path d="M316 2683 c21 -16 31 -16 39 -3 3 6 -1 7 -9 4 -9 -3 -16 -2 -16 3 0
5 -7 10 -16 10 -14 0 -14 -2 2 -14z"/>
<path d="M140 2600 c-9 -6 -10 -10 -3 -10 6 0 15 5 18 10 8 12 4 12 -15 0z"/>
<path d="M400 2579 c0 -5 -6 -7 -12 -3 -8 5 -8 1 2 -12 8 -10 15 -20 16 -22 1
-2 2 9 2 23 0 14 -2 25 -4 25 -2 0 -4 -5 -4 -11z"/>
<path d="M120 2576 c0 -2 7 -7 16 -10 8 -3 12 -2 9 4 -6 10 -25 14 -25 6z"/>
<path d="M117 2529 c3 -10 9 -19 14 -19 5 0 5 7 2 17 -5 12 -3 14 8 8 8 -5 11
-4 6 0 -15 17 -35 13 -30 -6z"/>
<path d="M120 2438 c0 -4 4 -8 9 -8 6 0 12 4 15 8 3 5 -1 9 -9 9 -8 0 -15 -4
-15 -9z"/>
<path d="M447 2436 c-4 -10 -3 -15 3 -11 6 3 10 1 10 -6 0 -7 3 -10 6 -6 3 3
2 13 -4 22 -8 16 -9 16 -15 1z"/>
<path d="M156 2302 c-3 -5 1 -9 9 -9 8 0 12 4 9 9 -3 4 -7 8 -9 8 -2 0 -6 -4
-9 -8z"/>
<path d="M1810 2261 c0 -5 5 -13 10 -16 6 -3 10 -2 10 4 0 5 -4 13 -10 16 -5
3 -10 2 -10 -4z"/>
<path d="M819 2187 c6 -8 7 -18 3 -22 -4 -5 -1 -5 6 -1 10 6 10 11 1 22 -6 8
-14 14 -16 14 -3 0 0 -6 6 -13z"/>
<path d="M210 2100 c0 -5 5 -10 11 -10 5 0 7 5 4 10 -3 6 -8 10 -11 10 -2 0
-4 -4 -4 -10z"/>
<path d="M187 2087 c-3 -8 1 -14 8 -14 7 0 11 6 8 14 -3 7 -6 13 -8 13 -2 0
-5 -6 -8 -13z"/>
<path d="M1870 2060 c0 -5 5 -10 11 -10 5 0 7 5 4 10 -3 6 -8 10 -11 10 -2 0
-4 -4 -4 -10z"/>
<path d="M202 2044 c10 -10 20 -16 22 -13 3 3 -5 11 -17 18 -21 13 -21 12 -5
-5z"/>
<path d="M776 2042 c-3 -5 1 -9 9 -9 8 0 12 4 9 9 -3 4 -7 8 -9 8 -2 0 -6 -4
-9 -8z"/>
<path d="M222 2011 c-11 -7 -11 -9 0 -14 9 -3 15 1 15 9 0 8 -1 14 -1 14 -1 0
-7 -4 -14 -9z"/>
<path d="M514 1958 c3 -21 16 -38 29 -37 9 0 9 2 0 6 -7 2 -13 11 -13 18 0 8
-4 16 -9 19 -5 4 -8 0 -7 -6z"/>
<path d="M795 1940 c3 -5 11 -10 16 -10 6 0 7 5 4 10 -3 6 -11 10 -16 10 -6 0
-7 -4 -4 -10z"/>
<path d="M308 1928 c-7 -17 1 -38 14 -38 7 0 7 4 -1 13 -8 10 -7 17 1 25 8 8
9 12 1 12 -6 0 -13 -6 -15 -12z"/>
<path d="M916 1872 c-3 -5 1 -9 9 -9 8 0 12 4 9 9 -3 4 -7 8 -9 8 -2 0 -6 -4
-9 -8z"/>
<path d="M275 1840 c-3 -5 -1 -10 4 -10 6 0 11 5 11 10 0 6 -2 10 -4 10 -3 0
-8 -4 -11 -10z"/>
<path d="M317 1823 c-10 -9 -9 -23 1 -23 5 0 9 7 9 15 0 17 -1 18 -10 8z"/>
<path d="M326 1770 c6 -22 5 -23 -9 -12 -10 9 -17 10 -22 2 -4 -6 -1 -9 7 -8
7 2 12 -4 10 -12 -3 -12 0 -12 13 1 14 14 15 21 6 35 -10 17 -11 16 -5 -6z"/>
<path d="M915 1695 c16 -12 17 -18 7 -24 -11 -7 -11 -9 0 -14 24 -9 19 32 -5
44 -22 10 -22 10 -2 -6z"/>
<path d="M715 1520 c3 -5 8 -10 11 -10 2 0 4 5 4 10 0 6 -5 10 -11 10 -5 0 -7
-4 -4 -10z"/>
<path d="M356 1492 c-3 -5 1 -9 9 -9 8 0 12 4 9 9 -3 4 -7 8 -9 8 -2 0 -6 -4
-9 -8z"/>
<path d="M943 1483 c0 -10 4 -10 16 -1 9 7 18 13 20 15 2 1 -5 1 -16 0 -11 0
-20 -7 -20 -14z"/>
<path d="M336 1453 c-6 -14 -5 -15 5 -6 7 7 10 15 7 18 -3 3 -9 -2 -12 -12z"/>
<path d="M2257 1376 c-4 -10 -1 -13 8 -9 8 3 12 9 9 14 -7 12 -11 11 -17 -5z"/>
<path d="M2285 1360 c-3 -5 -1 -10 4 -10 6 0 11 5 11 10 0 6 -2 10 -4 10 -3 0
-8 -4 -11 -10z"/>
<path d="M2305 1341 c-3 -5 -2 -12 3 -15 5 -3 9 1 9 9 0 17 -3 19 -12 6z"/>
<path d="M2390 1326 c0 -2 7 -7 16 -10 8 -3 12 -2 9 4 -6 10 -25 14 -25 6z"/>
<path d="M2438 1303 c6 -2 10 -8 8 -12 -3 -4 1 -8 9 -8 11 0 12 4 4 14 -6 7
-17 13 -23 12 -7 0 -6 -2 2 -6z"/>
<path d="M2630 1220 c-13 -8 -12 -10 3 -10 9 0 17 5 17 10 0 12 -1 12 -20 0z"/>
<path d="M2660 1176 c0 -2 7 -7 16 -10 8 -3 12 -2 9 4 -6 10 -25 14 -25 6z"/>
<path d="M412 1165 c3 -3 16 -8 28 -10 12 -2 20 -1 16 2 -4 4 -16 8 -28 10
-12 2 -19 1 -16 -2z"/>
<path d="M2760 1081 c0 -5 7 -11 14 -14 10 -4 13 -1 9 9 -6 15 -23 19 -23 5z"/>
<path d="M2740 905 c-7 -9 -8 -15 -2 -15 5 0 12 7 16 15 3 8 4 15 2 15 -2 0
-9 -7 -16 -15z"/>
<path d="M636 662 c-3 -5 1 -9 9 -9 8 0 12 4 9 9 -3 4 -7 8 -9 8 -2 0 -6 -4
-9 -8z"/>
<path d="M988 533 c7 -3 16 -2 19 1 4 3 -2 6 -13 5 -11 0 -14 -3 -6 -6z"/>
<path d="M2380 160 c0 -5 5 -10 11 -10 5 0 7 5 4 10 -3 6 -8 10 -11 10 -2 0
-4 -4 -4 -10z"/>
</g>
</svg>
