<svg version="1" xmlns="http://www.w3.org/2000/svg" width="1278.667" height="1278.667" viewBox="0 0 959.000000 959.000000"><path d="M511.5 71.1c-3.9 3.9-8.9 8.2-11.3 9.6l-4.4 2.6-2.6-2c-1.5-1.1-4.3-4.6-6.3-7.9-2.1-3.5-4.6-6.3-6.1-6.8-5-1.8-7.4-.1-13.8 9.7-7 11-17.1 21.1-21.8 22.2-2.5.5-4.4.1-8.2-1.9-5.9-3.1-7.9-3.2-11.2-.6-2.5 1.9-2.5 2.2-3.1 20.2-.9 31.6-5.9 50.9-18.4 71.9-4.4 7.4-5 8-13.7 13-5 2.8-13.6 8.3-19.1 12.2-12.8 9-33.4 29.6-40.4 40.2-9.9 15-21.3 41-26 59.1-1 3.6-2.1 4.7-9.6 9.7l-8.5 5.6-3-3.2c-4.6-4.9-6.4-10.5-5.8-18.6.6-8.5 3.9-15.7 13.2-29.6 7.7-11.4 13.1-22.1 17.5-34.8 3.7-10.5 3.9-14.9 1-17.8-1.8-1.8-3-2.1-7.4-1.6l-5.2.5 2.8-8.3c8.8-26 7.6-50-3.8-79.5-3.6-9.4-7.6-15-10.8-15-2.6 0-7.3 2.8-7.9 4.7-.3 1-1 4.9-1.6 8.8-4.1 26.6-15.4 56.7-27.2 72.4-2.3 3.1-12.1 13.7-21.8 23.6-17.5 17.8-23.1 24.9-28.5 35.5-7.9 15.6-11.4 30.4-11.5 47.8 0 18.4 3.1 30.9 12.6 50.9 2.4 5.1 4.4 9.5 4.4 9.8 0 .3-1.8.5-4.1.5-9.5 0-31.4 5.8-33.3 8.8-.4.6-1.5 4.5-2.6 8.6-1.9 7.6-5.6 15.8-9.4 20.9-2.2 3-8.3 7.3-9.2 6.4-.3-.3-2.2-9-4.3-19.3-6.3-30.8-10.5-63.7-11.8-91.4-.9-21.1-2.1-22.2-2.2-2-.2 32.2 2.7 71 7.3 100.9 1.7 10.4 2 14.8 1.2 15.3-1.7 1.1-16.7.9-24.9-.3-9.1-1.3-25.3-5.4-32.1-7.9-2.8-1.1-6.5-2-8.2-2-3.9 0-7.4 3.6-7.4 7.7 0 2.7 2 4.9 15.9 17.7 36.8 33.8 58.6 61.1 68.4 86.1 7.6 19 11 37.9 12.7 69.5.6 11.3 1.5 23.6 2 27.5.5 3.8.7 7.1.5 7.3-.8.8-8.5-2.3-18.5-7.5-48.7-25.1-96.2-91.6-134.2-187.8-7.2-18.4-6.6-14.3 1.9 11.9 22.5 69.4 52.7 124 87.8 159.1 18.1 18.1 37.7 31 56.3 37.1 4.8 1.6 8.8 2.9 9 3 .2.1 1.4 5.6 2.7 12.2 6.5 32 19 62.9 36.7 91.2 9 14.2 25.3 35.5 33.8 44.1 4.1 4.2 9.7 10.2 12.4 13.4 6.5 7.5 22.4 21.7 36.2 32.1 30.9 23.2 63.8 39.2 100 48.5 27.1 6.9 39.6 8.3 73.9 8.4 31.4 0 37.9-.5 61.7-5.1 54.4-10.5 104.2-36.4 143.7-74.9 32.6-31.7 51.6-62.9 66-108 2.3-7.2 4.4-13.6 4.6-14.3.3-.8 3.1 2.4 6.4 7.5 6.6 9.9 16.5 21.3 18.7 21.3.8 0 1.4.8 1.4 1.8 0 2.3 3.8 5.9 12.4 11.6 4 2.7 8 4.6 9.6 4.6 4.3 0 7.1-2.9 7.6-8 .3-2.5.9-5.4 1.4-6.5 4.3-10.1 6.2-13.7 9.3-16.7 5.9-6 19.2-9.8 34-9.8 5.9 0 7.1-.3 9.2-2.5 3.2-3.1 3.1-6-.4-13.5-1.6-3.4-3.2-8.4-3.6-11.1-.6-4.2-.3-5.5 1.8-9.2 1.4-2.3 4.3-5.6 6.5-7.4 4.7-3.8 5.8-7.2 3.7-11.2-1.7-3.4-1.5-3.3-15.5-6.1-37.3-7.5-63.3-22.9-85.9-51-12-14.9-12-15.1-14.7-32.8-2.7-18.1-2.9-20.2-1.1-20.2 2.2 0 33-15.5 42.7-21.5 33.8-21 59.1-48.3 83.2-89.9l6.3-10.9 8.5-2.9c22.9-7.8 39.7-10 63.3-8.6 14.8.9 17.1.5 16.5-3.5-.3-2.1-.7-2.4-7.8-5.6-6.2-2.8-11-3.7-30-5.6-22.3-2.3-46.7-1.6-63.2 1.9-22.4 4.7-51.8 14.7-72.9 24.8l-12.5 6-8.8-2.1c-4.9-1.2-12.7-3.9-17.4-6.1l-8.5-4 9.3-5.8c11.2-6.8 24.2-18.9 39.2-36.4 6-7 13.5-15 16.6-17.9 11.5-10.3 27.5-19.7 51.4-30.2 4.6-2 7.2-5.8 6.4-9.2-1.1-4.4-4.2-6.3-11.9-7-9.8-1-29.1-.8-35.2.4-2.7.5-5.1.8-5.3.6-.1-.1 1-3.8 2.5-8.1 2.6-7.5 2.8-8.8 2.8-26.4 0-14.3-.4-20.3-1.8-26.5-3.1-13.7-4.3-15.5-10.6-15.5-4 0-6.8 2.9-7.6 7.7-2.2 13.2-8.7 29.1-14.9 36.6l-2.3 2.8-.6-8.3c-.8-10-3.6-20.5-8.3-30.7-4.4-9.6-5.8-11.1-10.4-11.1-5.1 0-7.2 2.8-9.9 13-7.6 28.4-24.2 57.4-40.7 71.2-13.1 10.9-31.1 18.3-53.8 22.3-14.7 2.5-16.9 2.2-25-3.3-3.9-2.7-9.2-6.1-11.9-7.6-2.6-1.6-4.5-3.2-4.2-3.6.6-1 14.3-2.8 28-3.5 33.5-1.8 56.2-14.1 72.7-39.5 9.6-14.6 17.5-34.4 21.8-54.7 2.5-11.6 1.9-14.6-3.3-17.1-4.6-2.2-8-.1-12.2 7.4-4.3 7.7-14.2 20.3-17.7 22.6l-2.6 1.7-.7-6.2c-1.4-13.3-7.3-33.5-10.6-36.8-2.7-2.7-8-2.5-10.6.3-1.2 1.3-4.4 6.2-7.3 11.1-2.9 4.8-5.6 9-6.1 9.3-.5.2-1.1-.8-1.4-2.3-2-9.3-3-12.5-6-19.1-4-8.5-10.9-19.3-15.5-24-2.4-2.3-4.1-3.2-6.6-3.2-3.8 0-7.4 2.9-7.4 6 0 13.8-1.1 25.2-2.8 30-4.9 13.6-6.6 15.2-15.5 14.3-5-.5-5.8-.3-8.1 2-2.4 2.4-2.5 2.7-1.9 13.3.7 13-.5 18-5.2 23.3-6.9 7.6-14.9 9.7-46.3 12.1-14.8 1.1-24.4 3.7-34.8 9.5l-6.1 3.4-9.4-1c-14.7-1.5-45.7-1.3-60.3.5-7.1.9-13.1 1.5-13.3 1.2-.8-.8 8.6-18.2 13.2-24.3 6.8-9.2 17.4-18.4 37.3-32.8 23.2-16.8 34.6-26 43.2-34.7 19.4-19.5 35.4-47.8 46.6-82.3 5.6-17.3 6.3-21.6 4-25-2.1-3.3-5.9-4.7-9-3.6-1.2.5-5.8 4.3-10 8.5s-9 8.3-10.6 9.1c-2.9 1.5-3.1 1.5-4-1-.6-1.5-1.2-4.5-1.5-6.8-1.3-9.5-1.7-10.8-3.7-12.7-4.2-3.9-7.7-2.7-15.3 5.1zm-30.4 20.5c7.9 8.5 20.4 8.4 31.7-.3 1.8-1.4 3.4-2.3 3.5-2.2l2.6 5.2c4.4 8.8 11.9 11.6 20.5 7.8l4.7-2-.7 2.2c-4.5 15.1-18 40.6-29.1 55-11.9 15.4-18.1 20.5-66.2 54.4-7.9 5.6-21.4 18.5-27.1 26.2-8.6 11.4-15 25.2-23.1 49.4-4.5 13.4-6.5 28.4-5.6 42.7l.5 8.4-4.9-5.2c-7.3-7.8-9.5-7.2-13.5 3.8-3.9 11.1-9.9 22.5-16.6 31.7-3.2 4.5-6.3 8.5-6.7 8.8-.5.2-2.7-2.4-4.9-5.9-4.6-7-14.8-17-20.3-20-3.3-1.7-3.7-2.5-4.8-8.1-.6-3.4-1.1-10.5-1.1-15.7 0-8.4.4-10.7 4.1-21.3 5.1-15.1 14.1-33.9 20.9-44 2.9-4.3 8.7-11.4 12.9-15.8 12.7-13.3 38.7-32.7 45.8-34.1 4.3-.9 24.2-11.1 32.3-16.6 8.6-5.8 18.9-15.8 25.9-25 9-12 10-14.1 3.4-7.4-3.4 3.4-9.5 8.5-13.7 11.3-7.2 4.9-29.5 16.5-30.3 15.8-.2-.2 1.7-4.6 4.2-9.9 6.8-14.4 12.5-38.7 12.5-53.8 0-3 .3-7.1.6-9.1.6-3.5.7-3.6 5.4-3.7 9.3-.2 19.1-6.5 28.1-18.2 3-3.8 5.7-6.9 6-6.9.3-.1 1.6 1.1 3 2.5zM290 179.8c0 16.8-3.4 30-12.5 48.7-3 6.1-6.1 14-6.9 17.5-1.4 6.8-2.8 17-2.1 17 .1 0 1.7-2.5 3.5-5.6 5.7-10.1 13-16.3 19.3-16.4 2.6 0-4.2 14.1-12.8 26.6-10.6 15.4-16.4 29.2-16.5 39.5l-.1 3.4-2.4-3c-4.5-5.4-9.3-15.8-12.6-27.3-2.8-9.6-3.5-10.9-4.3-9-.5 1.3-1 7.5-1 13.8-.1 10.3.2 12.2 2.5 17.8 6.3 14.8 14.3 24.3 31.4 37.4 16.4 12.4 26.9 24.8 32 37.6 1.4 3.4 1.7 6.3 1.3 13.5-.8 13-3.1 18.5-13.1 30.3-4.5 5.3-9.7 11.6-11.5 14-1.8 2.4-3.4 4.4-3.6 4.4-.3 0-2.5-4.2-4.9-9.4-2.5-5.1-6.3-12-8.5-15.2-6.5-9.7-19.6-22.8-31-31.2-9.5-7.1-11.2-8.8-15.5-15.9-8.7-14.5-13.5-27.3-17.8-47.5-2-9.7.3-25.7 6.1-40.7 5-12.9 11.5-21.7 30.9-41.5 25.3-25.9 35.2-41.8 44.2-70.6l3.3-10.5 1.2 6c.7 3.3 1.3 10.6 1.4 16.3zm354.5 22.8c.8 3.2 2 9.7 2.5 14.2l.9 8.4-7.4 9.6c-4.1 5.4-8.6 11.2-10 12.9-1.5 1.8-2.3 3.3-1.9 3.3 1.1 0 15.1-8.7 21.2-13.2 7.4-5.4 14.3-12.4 22-22.1l6.1-7.7 1.1 3.7c.7 2.1 1.4 9.6 1.6 16.8.3 7.1.7 14 1 15.2.6 3.1 4.3 6.3 7.1 6.3 2.7 0 8.8-2.9 15.1-7.2 2.3-1.6 4.2-2.6 4.2-2.3 0 1.3-7.6 15.5-11 20.5-14.9 21.9-31.3 29.6-66.5 31.5-15.2.8-23.4 2.5-36.6 7.5-13.5 5.2-17.6 7.3-28.3 14.4-10.5 7-21.2 16.8-27.2 24.9-4.8 6.5-4.2 7-6.4-5.3-1.3-7.5-5.5-20.5-7.6-23.8-2.1-3.3-5.8-2.9-8.6 1-26 36-50.3 58.5-73.3 68.1-15 6.3-29 11.7-30.2 11.7-.9 0-1.3-1.8-1.3-5.8 0-5.2.5-6.8 4.8-13.8 20.3-33.8 46.9-58.8 83-78.1 5.9-3.1 12.1-6.9 13.8-8.3 7.5-6.5 20.5-10.7 35.3-11.5 5.3-.3 11.4-.8 13.6-1.1 3.9-.4 3.7-.3-3.5 3.7-7.9 4.3-18.8 11.7-20.8 14.1-.7.9 3.2 0 10.4-2.4 24.9-8.2 51-13.3 73.9-14.5 11.5-.6 11.8-.7 7.9-1.9-8-2.3-22.8-4.4-31.8-4.4h-9.1l5.1-2.9c6.9-4 13.8-11.9 16.4-18.9 1.2-3.1 2.4-9.3 2.7-13.7l.6-8.2 4.1-1.1c7.1-1.9 12.2-6.4 15.7-13.9 1.7-3.8 3.8-9.7 4.7-13.1l1.7-6.4 1.7 4c1 2.1 2.4 6.6 3.3 9.8zm114.1 54c1 8.1-.1 27-2 33.8-.9 3.3-3.5 9.8-5.8 14.5-2.3 4.7-4.4 9-4.6 9.5-.3.5 1.9-.4 4.8-2 6.9-3.8 35.7-31.9 41.8-40.8 5.3-7.7 5.9-7.2 4.3 3.4-1.9 12.2-6.3 21.7-14.2 30.8-3.7 4.1-3.8 8.4-.4 11.7 2.8 2.9 5.6 3.1 11.6.9 4.5-1.6 22.1-5.6 22.6-5 .1.1-3.9 3-9 6.4-12.1 8-21.3 16.5-34.6 32.2-15.7 18.3-19.3 21.6-32.2 29.6-11.1 6.9-17.9 10.5-40.1 21.3-12 5.8-21.9 13.2-32.3 24.2-8.6 9.1-15.3 14.7-22.4 18.9-5 2.9-5.3 3-3.8.8 10.3-14.8 19.9-33.7 26.5-51.8 4.4-12.1 10.5-34.8 9.9-36.4-.3-.8-1.5-2-2.7-2.6-1.8-1-2.9-.2-9.9 6.2-13.8 12.9-26.3 21-39.1 25.4-7.9 2.7-29.8 2.5-48-.5-7.4-1.2-19.5-2.5-26.9-2.8l-13.5-.6 5.4-5c7.2-6.6 18-14.1 26.4-18.4 15.2-7.7 42.4-14.9 59.4-15.8 8.8-.5 12-.9 27-3.9 38.7-7.8 62.8-23.2 81.4-52.1 5.3-8.1 12.5-22.3 15.9-31.3 1.3-3.4 2.7-6.2 3.1-6.2.3 0 1 2.5 1.4 5.6zM523.7 346c.6 11.9-.6 21.3-4.4 34.8l-2.6 9.3-6.6 3.4c-7.6 3.9-20.4 15.3-28.3 25.3-2.9 3.7-5.8 7.1-6.4 7.7-2.1 1.7-11.8 17.5-18.4 29.8-5.3 9.7-7.2 12.4-11.1 15.2-10.4 7.5-23.3 19.3-28 25.8-8.4 11.5-9.1 16.7-1.1 8.1 2.6-2.8 6.8-6.5 9.4-8.3 5.6-3.8 21.3-11.1 23.6-11.1 1 0 3.2 2.6 5.2 6.2 6.4 11.2 17.8 17.8 32.3 18.6 7.6.4 9.7.1 16.1-2.2 4.1-1.4 7.6-2.6 7.8-2.6.2 0 2 2.9 3.9 6.5 1.8 3.6 3.7 6.5 4.2 6.5.4 0 .7-1.8.7-4s.4-4 .9-4c1.1 0 6.1 5.8 6.1 7.1 0 .5.8.9 1.8.9 2.3 0 4.2 1.9 4.2 4.2 0 1.5.4 1.7 1.7 1 1.1-.7 2.9-.4 5.8.8 6.7 2.9 17.9 5 26.7 5.1h8.3l-5 4.2c-11.1 9.3-16.3 15.1-17 18.7l-.6 3.5 2.6-4.5c2.8-4.9 4.5-6.5 15.3-14.7 9.4-7 12.6-8.3 20.9-8.3h6.9l-.1 11.2c0 10.2.3 11.9 2.7 17 1.5 3.2 4.3 7.9 6.3 10.5l3.6 4.7-8.3 1.2c-16.6 2.4-26.1 8.2-31.6 19.3l-2.9 5.9-3.7-4.3c-1.9-2.4-6.7-6.7-10.5-9.5l-7-5.2.6-4.7c.3-2.5 1.2-6.4 2-8.6l1.3-4-2.5 3.2c-2.1 2.6-3.6 3.4-7.6 3.9-2.7.4-5.2 1.1-5.5 1.5-.9 1.4-5.3 1-8-.7-1.9-1.3-3.7-1.5-7.9-1-4.4.5-5.5.3-5.5-.8 0-.8.5-1.8 1-2.1.6-.3 1-1.2 1-1.8 0-.7-1.7.5-3.6 2.6-2.8 3-3.4 3.4-2.9 1.6 1.1-3.3 3.3-8 5.7-11.7 1.1-1.8 1.8-3.6 1.4-3.9-.9-1-9 8.1-14.2 15.9-5 7.5-10.1 12.8-19.5 19.8-9.3 7-15.5 16.6-19.8 30.5-3.9 12.6-8.7 20.5-18 29.1-8.1 7.6-8.3 7.7-5.7 3.4 3.9-6.3 7.4-11.8 10.7-16.8 1.6-2.3 2.9-4.8 2.9-5.4 0-1.7-3.6 1.9-11 11.2-7.7 9.7-12.2 16.9-14 22.6-2.4 7.4-3.2 9.4-4 9.4-1 0-13.5 26.6-15.6 33.3-1.7 5.4-2.4 6.4-10.9 13.1-4.9 4-10.8 8.6-13 10.2l-3.9 2.9 5.5-7.2c5.4-6.9 5.6-7.3 6.2-15 1-13.2 4.5-20.1 13.1-25.8 3.6-2.4 5-4.1 6.7-8.5 4.6-12 25.9-72.7 25.9-73.7 0-.6 1.1-3.5 2.4-6.4 3.9-8.6 7.6-18.9 6.7-18.9-.4 0-1.5 1.6-2.5 3.6l-1.7 3.7-2.1-3.9c-1.1-2.1-2.5-4.4-3-4.9-1.1-1.1-1.1-.9 1.3 7.7 1.1 4.1 1.1 5.1-.6 8.7l-1.8 4.1-2-3.2c-2.8-4.8-6.5-8.5-9.9-9.9l-3-1.2 2.4-1.3c3.4-1.9 4.2-1.7 7.7 1.8 3.5 3.6 4.2 2.1 1-2.4-1.2-1.6-2-3-1.8-3.2.2-.1 4.1-2.6 8.7-5.5 4.5-3 8-5.6 7.8-5.9-.8-.7-9.8 3.3-21.6 9.6-11.7 6.3-25.9 12.4-27 11.7-.4-.3-1.3.2-2 1-.6.8-4.1 3-7.6 5-17.3 9.7-38.5 31.7-48.4 50.4-6.6 12.3-19.6 25.8-29.5 30.5-4.2 2-15.6 4.6-20.4 4.6-1.9 0-4.2-.6-5-1.4-1.3-1.2-2.3-1.2-5.4-.3-2 .7-3.9 1.9-4.2 2.7-.3.8-6.1 4.3-12.9 7.8-13.6 7-13.1 6.9-20.3 1.5-8.8-6.7-8.2-15.4 2.9-44.8 2.7-7.2 5.2-13.3 5.6-13.7.4-.4 3 .9 5.9 2.9l5.1 3.5-.5 7.4c-.3 4.1-.2 7.4.3 7.4s2-2.5 3.2-5.4l2.4-5.5 7.1 5.1c11.2 8 24.5 15.8 27 15.8 3.1 0 6.4-2.5 7.1-5.4 1.1-4.5-.9-7.2-8.6-11.7-5.9-3.4-24-15.1-25.7-16.6-.3-.2.7-5.2 2.2-11.1 3.2-13.2 4.3-20.2 3-20.2-1.3 0-5.8 8.4-9.8 18.2l-3.2 7.9-5.1-4-5.1-4 5.8-17.3 5.7-17.2 3.7-.3c3.9-.2 9.7-3.6 9.7-5.6 0-.8-1.3-1.1-3.9-.9-2.1.2-4.8-.1-5.8-.7-3-1.6-5.7-15.2-5.6-28.1.1-14.4 2.1-21.4 13.3-48 2.7-6.5 16-30.9 25.1-46.3 1.6-2.7 2.9-5.1 2.9-5.5 0-2.2-17.5 17.1-23.7 26.3l-7.5 11 .5-8c.8-12.4 2.7-17.2 11.6-28.2 4.2-5.4 10.7-13.2 14.4-17.3 3.7-4.1 8.2-10.4 9.9-13.8 2.9-5.8 3.4-6.3 5.9-6 2.4.4 2.7.2 1.8-1.4-.5-1-1.5-1.8-2.2-1.8-.9 0-1.2-3.8-1.2-15.3 0-11.1-.5-17.4-1.8-23.5-1-4.6-1.6-8.6-1.3-9 1.3-1.3 11.4 4.6 16.3 9.6s12.3 15.7 12.3 17.9c0 .5-2.2 2.6-5 4.7-6.7 5.1-10.4 9.6-14 16.6-3.2 6.4-6 16.4-6 21.9 0 4.2.8 3.5 3-2.6 5.4-15 10.6-21.7 24.5-31.5 4.4-3.1 10.5-8.1 13.5-11.2 3-3.1 5.9-5.6 6.5-5.6 1.4 0 7.6 8.2 10.4 13.7 2.4 4.9 5.1 15.3 5.1 20.1 0 2.2-1.3 5.2-4 9.2-5.4 8-12.8 11.5-28 13.4-1.9.2.6.3 5.7.2 8.1-.2 9.6-.5 13.3-3l4.1-2.7-1.5 2.9c-1.8 3.6-5.9 19.2-5.2 20 .8.8.9.6 5.1-7.8 7.5-15 15.4-24.1 28.7-33.1 7.6-5.2 17.6-9.9 21-9.9 1.4 0 3.5-.3 4.5-.7 1.6-.6 1.5-.8-.6-1.3-2-.4-.3-1.4 8-4.4 14.6-5.4 26.7-11.8 38.4-20.4 11.6-8.6 33.3-30 42.5-42l6.4-8.3 1.9 6.3c1 3.5 2.1 11 2.4 16.8zm-135.4 2.2c8.9 12.6 12.4 22.5 13.4 37.9.9 12.9-.4 14.2-3.2 3.3-2.8-10.9-7.5-20.6-14.8-30.3l-5.5-7.3 2.1-4.9c1.2-2.7 2.4-4.9 2.8-4.9.5 0 2.8 2.8 5.2 6.2zm-8.5 13.5c5.2 6.6 9.3 14.4 12.2 23.2 4.8 14.7 4.8 14.9-.9 19.8l-4.9 4.2-1.6-7.2c-2.2-9.5-5.5-16.6-11.7-24.3l-5-6.3 3.8-6.5c2.1-3.6 4.1-6.6 4.5-6.6.3 0 2 1.7 3.6 3.7zM661 389.1c-9.5 26.1-24.3 52-35 61.2-7.8 6.7-12.3 8.3-22 7.8-4.7-.3-13.3-.5-19.1-.5l-10.6-.1-6.7 6.5c-3.7 3.6-7.7 7-8.9 7.7-1.3.7-6.2 1.2-11.8 1.3-6.1 0-11.3.6-14.3 1.6-6.2 2.1-15.1 10.4-19.6 18.2-3.1 5.3-4.2 6.4-9.4 8.8-13.4 6.1-29.6 3-39.4-7.5-3.3-3.6-7.2-11.5-7.2-14.7 0-1.5 2.8-7.9 6.1-14.3 11.3-21.3 27.7-44.5 37.2-52.6 7-6 9.6-6.8 20-6.3 10.8.6 16.7 2.7 27.1 9.6 3.9 2.6 7.7 5.1 8.5 5.6 2.7 1.7-4.8-8-9.8-12.7-5.6-5.2-13-9-20.1-10.2l-4.5-.8 5.7-1.8c7.6-2.4 18.7-3.3 28.1-2.4 9.7.9 14.8 4.1 23.1 14.6 3.4 4.3 6.2 7.7 6.3 7.6.9-.9-2.4-11.2-4.7-15.1l-3.1-4.8 3.3.6c14.4 2.7 35.8 3.4 45 1.5 7.5-1.5 24.1-9.8 32.3-16.2 3.9-3 7.1-5.1 7.3-4.7.2.4-1.6 5.9-3.8 12.1zm-454.7 4.6c-1.5 2.7-12.5 21.1-24.4 41.1l-21.7 36.3-2.1-6.2c-1.1-3.5-2.1-6.8-2.1-7.3 0-.6 9.2-16 20.4-34.1 20.3-33 20.4-33 24.2-33.6 2.2-.3 4.9-.7 6.2-.8l2.3-.1-2.8 4.7zm13.3-.6c2.8 1.9 4.3 3.6 4 4.5-1.2 3-54.9 92.4-55.5 92.4-.4 0-1.8-2.9-3-6.5l-2.3-6.4 25.8-43.5c14.3-24 26-43.6 26.2-43.6.2 0 2.4 1.4 4.8 3.1zm684.4-1.9c-31.1 6.8-63 19.4-102.9 40.6-28.1 15-38.9 21.8-78.1 49.2-37.9 26.5-67.8 42.3-99.8 53l-14.3 4.8.7-8.4c.5-6.7.4-8.5-.7-8.9-.8-.2-11.5-.6-23.9-.9-20-.4-23.6-.7-32.3-2.9-10.4-2.8-17-5.9-22.7-10.9l-3.5-3 11.5.6c21.4 1.2 60.9-2.1 81.5-6.8 21-4.9 60.2-21.4 95.8-40.5 32.6-17.5 35.8-19.2 45-24.8 25.7-15.5 60.3-29.8 89.1-36.8 17.3-4.2 25.9-5.2 44.6-5.2 11.9-.1 13.7.1 10 .9zm-714.2.8c-.6 2-35.3 57.9-35.9 58-1 0-4-12.5-3.4-14 .3-.8 3.2-3.1 6.4-5.1 9.3-5.9 16.3-16 21.1-31 2-6.4 2.2-6.7 6.3-7.6 5.7-1.4 5.9-1.4 5.5-.3zm33.7 21c-.8 3-1.5 5.7-1.5 5.8 0 .2 2.4-1 5.4-2.6 3-1.7 5.7-2.8 6-2.5.3.4.6.2.6-.3s1.3-1.7 2.9-2.7l2.8-1.7 5.5 5.8c6.2 6.6 10.4 12.4 14.3 20.1 4.1 8.3 5.7 13.3 4.5 14.5-1.4 1.4-1.3 2.9.2 2 .8-.5.9-.2.5 1-4.1 10.7-5.4 27.2-2.9 36.2 1.1 3.8 1 4.7-1.7 10.5-3.2 7.1-7.3 20.1-9.2 29.4-1.8 8.7-1.6 25.5.4 35.5l1.7 8.5-4.7 14.9-4.8 15-7.4-7c-10.6-9.9-24.9-26.9-34-40.3-11-16.4-13.1-20.2-12.5-23.1.4-2.1.3-2.2-.4-.5-.8 1.8-1.1 1.6-3.1-2.2-2.5-4.9-2.6-7.4-.7-11.6.8-1.8 3.1-10 5.1-18.2 3.5-14.7 10.9-38.5 14.7-47.5 2.1-4.8 3.2-11.3 1.8-10.5-.5.3-4.3 6-8.4 12.8-8.3 13.6-17.1 31.3-21.5 43.3l-2.9 7.9-1.8-3.7c-1.2-2.6-1.5-4.3-.8-5.6 1.5-3.2 52.9-89 53.1-88.8.1.1-.4 2.6-1.2 5.6zM106 437.9c0 1.8-1.8 2.1-3 .6-1-1.3-.9-1.5.9-1.5 1.1 0 2.1.4 2.1.9zm15.8 1.1c2.2 0 2.1.3-1.9 6.1l-4.1 6.1-3.9-3.8-3.8-3.7 2.1-3c1.8-2.6 2.5-2.8 5.7-2.3 2 .3 4.6.6 5.9.6zm18.6.6c.4 1.1-1.8 5.5-6.1 12.3-3.6 5.8-6.8 10.8-7.1 11.1-.5.6-7.2-7.1-7.2-8.3 0-.4 2.2-4.1 5-8.2 3.2-4.7 5.8-7.5 7.2-7.8 5-1 7.6-.7 8.2.9zm2 29.6c-2 3.5-3.9 6.5-4.1 6.8-.6.7-7.2-7.3-7.3-8.7 0-.7 2.5-5.2 5.7-10l5.6-8.8 2 7.2 1.9 7.2-3.8 6.3zm521.8-2l3 3.8-4.9 2.1c-21.6 9.4-39.4 15.3-55.9 18.5-16.2 3.1-74.2 5.7-79.7 3.6-1.5-.7-1.4-1.1 1.4-4.5 4.9-6 9.3-7.7 19.6-7.7 11.9 0 15.6-1.2 21.8-7.1l5.1-4.8 14-.5c23.4-.9 40-4.8 54.9-13l8-4.4 4.8 5.1c2.7 2.9 6.2 6.9 7.9 8.9zm-513.8 10.2c1.8 6.4 1.8 6.6-.2 9.7l-1.9 3.1-3.7-4.7-3.6-4.8 2.1-3.1c1.1-1.7 2.5-4.1 3.1-5.3 1.5-3.1 2.2-2.3 4.2 5.1zM786 487.5c-.7.8-1.8 1.5-2.4 1.5-.6 0-.2-.7.8-1.5 2.5-1.9 3.2-1.9 1.6 0zm-626.9 18.8c-.8.8-2.5-1.4-5.5-7.2-1.5-2.9-1.6-3.7-.5-5.8 1.3-2.3 1.4-2.2 4.1 4.9 1.5 3.9 2.4 7.6 1.9 8.1zm616.7-13.1c-.4 1.3-9.6 7.8-11 7.8-.4 0-.2-1.2.5-2.7 1.5-3.4 11.5-8.2 10.5-5.1zm-18 8.9c-1.7 3.1-3.8 4.9-8.2 7.1-3.2 1.6-5.6 2.6-5.5 2.1 3.4-7.6 6.2-11.3 9.2-12.2 6.6-1.9 7.1-1.6 4.5 3zm-17.6 6.1c-3.3 6.1-4.6 7.5-8.1 9-2.4 1-4.1 1.4-3.9 1 .2-.5 1.9-4.3 3.8-8.5 3.6-8 3.2-7.6 10.8-8.5.9-.1-.1 2.5-2.6 7zm-24.2-4.8c0 .8-.4 1.8-1 2.1-.5.3-1 .4-1 .1 0-.2-.3-1.1-.6-2-.4-1.1-.1-1.6 1-1.6.9 0 1.6.6 1.6 1.4zm14-1c0 .2-2.1 4.7-4.6 10.1l-4.7 9.9-1.7-4.5c-1.7-4.2-1.7-4.6.1-9.2 1.1-2.6 1.9-5 1.9-5.2 0-.2 1.5-.6 3.3-.8 1.7-.2 3.8-.5 4.5-.5.6-.1 1.2 0 1.2.2zm-31.6 9.1c1.6 2.4 1.5 3-.4 9.8-1.2 3.9-4.3 12.2-7 18.2-5.4 12.3-7.3 18.8-6.8 23 .3 2.7.7 2.4 5.8-5 7.6-10.9 10.4-15.9 13-23.5 1.3-3.6 2.6-6.8 3-7.3 1-1.1 9.3 18 9.2 21.1-.1 4.3-4.7 15.7-11 27.2-6.6 12.1-7.9 14.8-9.8 21-2.1 6.7-1.8 6.9 2.6 2 7.2-8 13.4-17.2 18.1-26.7l4.6-9.3 2.2 13.2c1.2 7.3 2.3 14.4 2.5 15.7.8 5.3-9.9 28.3-22.3 48.1-4 6.3-8.3 12.6-9.7 14.1-1.3 1.4-2.4 2.9-2.4 3.4 0 1.5 17.6-16.3 22.8-22.9 2.5-3.3 6.5-9.3 8.8-13.4 3.6-6.3 4.3-7 4.9-5.2.4 1.2.4 7 0 12.8l-.8 10.7-8.6 10.9c-4.7 6.1-12.1 15-16.4 19.9-4.4 4.9-7.7 9-7.5 9.2.2.3 7.3-6.3 15.8-14.4 8.5-8.2 15.7-14.7 15.9-14.5.2.2-.1 6.4-.8 13.6l-1.3 13.3-8.4 11.1c-4.6 6.1-10.5 13.2-13.1 15.7-2.6 2.5-4.4 4.9-4 5.3.4.4 2.4-.8 4.5-2.7 7-6.6 17.4-14.2 16.8-12.2-.3 1-1.4 4.7-2.5 8.3-1.1 3.6-3.6 10.5-5.6 15.5-3.5 8.9-3.5 9-20.7 26.4-17.8 17.9-17.8 18.4 0 4.9 5.6-4.3 10.2-7.7 10.2-7.4 0 1.3-10.9 19.3-16.4 27-19.7 27.5-40 47-68.6 65.8-13.2 8.7-34.8 20-48.2 25.2-74.9 29.1-163 25.2-231.3-10.3-27.1-14-48.7-30.1-72.5-54-39.9-39.9-65.3-82.7-77-129.1-1.6-6.3-3.2-13.1-3.5-15.1l-.7-3.6h20.1c19.4 0 20.1.1 22.1 2.2l2.1 2.2-2.2 8.4c-3.2 12.2-3.1 22 .5 29.2 4.7 9.6 18.5 19.7 27 19.7 2.8 0 7.4-1.8 16.7-6.6l12.9-6.7 1.9 2.4c1.8 2.4 10.1 7.6 10.1 6.4 0-.3-1.1-2.3-2.5-4.3-3.6-5.3-3.3-6.2 2.3-6.2 2.6 0 7.8-.7 11.7-1.5 3.8-.8 7.6-1.5 8.3-1.5.7 0 2.2 2 3.4 4.5 1.2 2.5 2.5 4.5 2.9 4.5 1.2 0 2.1-5.6 1.4-9.2-.5-3.1-.3-3.5 4.3-6.2 2.7-1.5 6.9-4.8 9.3-7.2 2.4-2.4 4.9-4.3 5.6-4.4.6 0 2.3 2.1 3.9 4.7 2.6 4.5 2.8 4.6 3.6 2.3.8-2.3.7-3.2-1.4-10.2-1-3.4-.8-4 1.9-7.5 1.6-2.1 4.3-6 5.8-8.7l2.8-4.8 1.9 2.3c5 6.4 11.5 20.4 10.6 23-.2.6-2-.1-4.1-1.5-3.3-2.3-3.7-2.4-3.7-.7 0 1 1.3 3.6 2.9 5.8l2.9 4-2.1 6.4c-1.1 3.5-2.2 6.6-2.3 6.8-.2.2-1.7-.7-3.3-1.9-1.7-1.2-3.1-1.7-3.1-1.1 0 2.3 2.2 6.4 4.8 8.9 2 1.9 3.3 4.5 4.1 8.3 1.1 5.5 1 6.2-3.4 21.5-4.7 16.6-5.3 20.2-3.3 22.2 2.2 2.2 5.3 1.2 15-4.7 16.3-9.9 41.8-29.5 41.8-32.1 0-.5.9-3.4 2.1-6.5l2-5.5 4 6c6.9 10.2 16.4 16 30 18.1 6.7 1.1 9 .9 20-1 28.2-5 45.5-13.8 64.6-32.7 9.7-9.6 10-9 3.3 5.3-7.9 16.9-21 34.1-35.3 46.1-13.5 11.3-26 18.9-46.6 28.4-5.8 2.6-10.2 4.8-9.8 4.8 2.2 0 18.1-4.4 25.7-7.1 26-9.2 50-26.8 66.6-48.8 22.1-29.1 29.7-67.4 19.6-97.7-1.6-4.7-2.5-8.1-2.2-7.7.4.5 2.7 3.5 5.3 6.9 10.3 13.7 23 22.3 38.7 26.4 13 3.4 15.9 2.2 10.4-4.2-6.1-7.4-11-20-13-33.6-1.8-12.7-3.7-19.9-7-26.4l-2.4-4.7 3.8-1.2c2-.6 8.4-1.4 14.2-1.6 9.9-.5 13-1.3 13-3.4 0-.5-2.7-3.8-5.9-7.3-6-6.4-11.1-14.9-11.1-18.4 0-1.5 1.4-2.3 6.8-3.7 22.3-6 52.1-18.7 75.2-32.3 4.7-2.7 8.8-5 9.1-5.1.4-.1 1.4 1 2.3 2.4zm-529.5 16.2c.2 6.1-1.4 4.6-4.5-4.3-1.8-5.4-3-10.2-2.7-10.8.8-1.2 7.1 11.9 7.2 15.1zm14.6 26c9.4 16.2 25.9 36.7 42.4 52.5l12.1 11.6-2.1 5.9c-1.2 3.2-2.4 6.1-2.8 6.5-.3.3-6 1.4-12.6 2.3-12.5 1.8-38.7 1.7-40.6-.2-2.9-2.9-5.3-57.3-3-67.8.5-2.2 1.2-6.6 1.6-9.8.3-3.1 1-5.7 1.5-5.7.4 0 2 2.1 3.5 4.7zM535.7 579c4.3 2.2 9.1 5 10.8 6.3 4 3 16.4 15.5 19.7 19.7 3.3 4.4 5.2 3.5 7.7-3.5 2.5-6.9 4.1-9.9 5.1-8.9.4.5 3 7.5 5.8 15.6 6.3 18 9.6 24.8 16.2 32.7 4.9 5.9 5 6.1 2.3 5.5-5.2-1.2-17.6-7.4-23-11.4-3.4-2.6-9.2-9.3-16.6-19.3-6.3-8.4-13.8-17.4-16.6-19.9-8.4-7.5-20.2-12.1-34.7-13.5-3.9-.4-6.3-1-6.1-1.7.9-2.6 9.1-5.6 15.3-5.6 5.3 0 7.4.6 14.1 4zm-118.2 14.3c4.9 4.8 6 4.6 1.9-.2-4.2-5-.3-3.8 4.5 1.4 4.3 4.7 5 7.5 3 11.9-.8 1.6-1.7 2.3-2.8 1.9-1.3-.5-1.4-.3-.3.8 2.3 2.5 1.2 3.2-1.4.8l-2.6-2.4 1.9 4 2 4-4.3 11.9c-4.6 12.5-5.4 14-6.2 11.7-2.4-7-9.4-18.2-16.2-26.2l-8.1-9.4 2.2-1.8c2.2-1.8 2.3-1.7 7.2 3 4.6 4.5 4.8 4.6 2.7 1.3-1.1-1.9-2.8-4.5-3.6-5.7-1.4-2-1.4-2.2.6-3.3 2.7-1.5 5 .5 12.2 10.5 6.2 8.6 5.7 6.8-1.1-4.4-2.8-4.6-5.1-8.8-5.1-9.2 0-.9 6.1-4.7 7.7-4.8.7-.1 3.3 1.8 5.8 4.2zm323 3.7c-.2.8-1.2 7.6-2.1 15-1.6 12.2-1.9 13.1-2.5 9-.4-2.5-.8-10.8-.8-18.5v-14l2.9 3.5c1.6 1.9 2.8 4.2 2.5 5zm-220.1 4.8c5.5 2.5 5.5 2.9.3 12.2-8.1 14.7-17.7 25.1-31.3 34-7.7 5.1-38.7 21-40.8 21-1.8 0 8.5-9.9 16.9-16.2 4.4-3.3 8.5-7 9.1-8.2.6-1.1 1.4-4.6 1.7-7.6 2-17.3 9.8-32.2 19.2-36.6 4.4-2.1 18.7-1.3 24.9 1.4zm231.6 9.1c0 3.3-6.8 53.2-7.3 53.8-.8.7-3.9-12.1-4.4-17.7-.3-3.1.6-13.6 2.1-24.4 1.4-10.3 2.6-19.6 2.6-20.5.1-2.8 7 5.9 7 8.8zm12.7 9.3l2.2 2.3-5.2 33.2c-2.8 18.3-5.4 33.3-5.8 33.3-.3 0-2.1-2.7-3.8-6l-3.2-6 4-30c2.3-16.5 4.1-30.7 4.1-31.5 0-1.4.4-1.3 2.8.3 1.5 1.1 3.7 3.1 4.9 4.4zm-225.2-3c.3.7-5.2 16.8-12.1 35.8-6.9 19-14 38.8-15.6 44-1.7 5.2-3.5 10-4 10.6-1.1 1.4-11.7 5.9-12.3 5.2-.6-.5 9.1-23.8 14.9-36 2-4.2 3.6-7.9 3.6-8.2 0-1.6 15.4-37.3 19.1-44.3 4.4-8.2 5.5-9.5 6.4-7.1zm6.6 12.7c1.1 3.6.6 5.6-8.7 33.6l-9.9 29.7-5.3 4.5c-2.9 2.5-5.5 4.3-5.8 4.1-.2-.3 5.7-17.5 13.1-38.3 7.4-20.8 13.5-38 13.5-38.2 0-.2.4-.1 1 .2.5.3 1.5 2.3 2.1 4.4zm249.1 8.5c9.9 4.2 31.7 11.6 34.5 11.6 1.8 0 1.7.9-.8 6-2.3 4.8-2.8 15.7-.9 22 .5 1.9 1 3.5 1 3.6 0 .1-2.7.4-6.1.8-8.2.8-19.2 4.8-25.7 9.2-6.1 4.3-12.5 12.6-15 19.6-.9 2.6-2 4.8-2.4 4.8-.4 0-2.5-1.7-4.6-3.8l-4-3.7 1.9-11.3c2.2-13.8 4.9-36.4 4.9-41.2-.1-2.7-.3-3.1-1-1.8-1.6 2.7-5.8 21.3-7.9 35.2-1.1 7-2.2 13-2.5 13.3-.2.2-1.6-1.1-3-2.9l-2.5-3.4 4.9-32c2.7-17.5 5.2-33.3 5.5-35.1l.6-3.2 6.4 3.9c3.5 2.1 11 5.9 16.7 8.4zm-244.9 23.4c-.5 5.9-1 7-6.4 13.7-3.2 4-6.2 7.6-6.7 7.9-.6.3 2-8.4 5.6-19.5l6.7-20.1.7 5.9c.4 3.2.5 8.7.1 12.1zm-38.8-2.8c-2.5 5.6-4.5 10.7-4.5 11.2 0 1-15.5 38.8-17.6 43-1 1.9-2.7 3.1-5.7 3.8-2.3.6-5 1.4-6.1 1.7-1.3.4-.8-.9 2.2-4.8 4.8-6.5 8.5-12.9 10.8-18.7 1.4-3.7 1.5-4.9.4-8.1-1.2-3.8-1.1-4.1 5.4-16.4 4.9-9.2 7.6-13.1 9.9-14.6 1.8-1.1 4.5-3.3 6.1-5 1.6-1.7 3.1-2.9 3.3-2.7.2.2-1.7 5-4.2 10.6zm-22 14.4l-4.7 8.6h-8.9l1.5-2.8c3.2-6 6.3-9.4 11.1-12.1 2.8-1.6 5.1-2.8 5.3-2.6.2.2-1.8 4.2-4.3 8.9zm-17.2 4.6c-1.5 2.6-2.3 3-6.3 3l-4.5-.1 5.5-2.9c7-3.7 7.5-3.7 5.3 0zM445 693.6c3.6.7 11.1 1.9 16.7 2.5l10.2 1.2-1.4 2.7c-.7 1.4-3.5 5-6 7.8-4.1 4.5-5.2 5.2-8.3 5.2-8.1-.1-16.4-5.1-20.7-12.4-2.1-3.6-2.4-4.8-1.5-7.1.8-2 1.5-2.5 2.8-2 .9.4 4.6 1.3 8.2 2.1z"/><path d="M383.4 233.9c-4.3 3.1-15.5 16-22.3 25.4-7 10-14 25.5-16.2 36-2.3 11.1-2.4 18.5-.4 34.2.8 6.6 1.5 12.4 1.5 12.8 0 .5.5.5 1 .2.6-.3 1-3.2 1-6.5 0-8.5 5.5-36.8 9.6-48.9 5.5-16.7 11.4-27.5 28.7-53.4 2.4-3.4 1.9-3.4-2.9.2zM463.2 406.3c2 1.7 4.9 5.1 6.4 7.5 3.4 5.3 4.2 4.8 1.5-1-1.2-2.7-3.6-5.5-5.8-7.1-5.4-3.7-6.6-3.4-2.1.6zM342.8 434.7c.7.3 1.6.2 1.9-.1.4-.3-.2-.6-1.3-.5-1.1 0-1.4.3-.6.6zM413 479.6c-25.5 20.3-31.1 24.3-40.9 29.2-23.6 11.8-29.7 22.2-26.5 44.9.8 6 1.2 12.7.8 15.2-.9 5.9-2.2 3.5-3-5.8-.4-4.1-1-6.7-1.5-6-1.5 2.5-2 12.7-.9 18.9 2.1 11.7 6.5 19 5.8 9.7l-.3-4.2 7.5-2.1c4.1-1.1 10-2.1 13-2.3 6.9-.3 8.2-1.4 3.2-2.9-5.6-1.7-12.6-8.3-15.9-14.9-2.2-4.7-2.7-7.1-2.7-12.8 0-11.8 5.1-20.1 16.5-26.9 3.3-2 15.5-10.9 27.2-19.8 11.6-9 21.5-16.2 21.9-16.1.4.2.8-.3.8-1.1s5.7-6.9 12.7-13.5c6.9-6.7 12.4-12.3 12.2-12.6-.3-.2-13.7 10.2-29.9 23.1zM359.6 462.4c-1.8 3.9-2 5.6-.6 5.6 1.1 0 4-5.3 4-7.5 0-2.6-1.7-1.7-3.4 1.9z"/><path d="M407.3 493.7c-2.2 2.7-7.7 8.8-12.1 13.8-4.5 4.9-7.9 9.1-7.7 9.3.2.2 4-2.4 8.5-5.9 6.9-5.5 8.6-7.4 12-14.2 2.2-4.2 3.8-7.7 3.6-7.7-.1 0-2.1 2.1-4.3 4.7zM398.8 514.5l-3.6 5 5.3 4.7c6.3 5.7 9.3 11.4 10.4 20l.8 6.3.2-8c0-4.4-.6-10.7-1.4-14.1-.8-3.3-1.1-7-.8-8.2.5-2 .3-2.1-2.8-1.2-1.9.6-3.5 1-3.6 1-.1 0-.3-2.3-.5-5.2l-.3-5.2-3.7 4.9zM475.5 531.4c-.8 1.9-1.5 3.8-1.5 4.1 0 1.5-10.7 14.9-15 18.8-2.7 2.4-4.7 4.7-4.4 5 .3.3 2.8-.8 5.6-2.5 7.6-4.7 16-16.2 17.9-24.6 1-4.5-.8-5.1-2.6-.8zM522.5 566c-.3.5.1 1 .9 1 .9 0 1.6-.5 1.6-1 0-.6-.4-1-.9-1-.6 0-1.3.4-1.6 1zM296.9 576.8c-.4 2.6.6 6.3 2.8 10.3 4.8 8.9 14.6 11.4 25.3 6.3l5.5-2.6-8.1-1.8c-9.1-2.1-13.9-4.2-20.7-9.4-2.6-2-4.7-3.3-4.8-2.8zM622.1 556.3c.2.2 2 1.4 3.9 2.6l3.5 2.3-3-2.6c-1.6-1.4-3.4-2.6-3.9-2.6s-.7.1-.5.3zM639.4 571c2.7 3 5.2 5.7 5.5 6 .2.3-.4-.9-1.5-2.6-1-1.7-3.5-4.4-5.4-6-2.8-2.3-2.5-1.8 1.4 2.6z"/></svg>